<svg fill="none" xmlns="http://www.w3.org/2000/svg"><path d="M32.16 12.11C32.1601 10.1197 31.5591 8.17576 30.4357 6.53282C29.3123 4.88988 27.7188 3.62453 25.8641 2.90253C24.0094 2.18052 21.9798 2.03552 20.0413 2.48651C18.1027 2.9375 16.3456 3.96346 15 5.43H2.52002V31.77H28.87V19.46C29.9042 18.535 30.7318 17.4023 31.2987 16.1358C31.8656 14.8693 32.1591 13.4976 32.16 12.11V12.11ZM27.09 12.11C27.092 13.0637 26.811 13.9966 26.2826 14.7906C25.7541 15.5845 25.0021 16.2039 24.1215 16.5702C23.2409 16.9366 22.2715 17.0335 21.3358 16.8486C20.4002 16.6638 19.5404 16.2055 18.8653 15.5318C18.1902 14.8581 17.7302 13.9993 17.5434 13.064C17.3566 12.1288 17.4515 11.1591 17.816 10.2778C18.1805 9.39646 18.7983 8.64309 19.5911 8.11302C20.384 7.58295 21.3163 7.30001 22.27 7.3C23.5466 7.3 24.7711 7.80645 25.6747 8.70821C26.5784 9.60997 27.0874 10.8334 27.09 12.11V12.11ZM23.8 26.7H7.59002V10.5H12.53C12.4346 11.0315 12.3844 11.5701 12.38 12.11C12.3827 14.7322 13.4255 17.2462 15.2797 19.1004C17.1338 20.9545 19.6478 21.9974 22.27 22C22.7827 21.9973 23.2943 21.9538 23.8 21.87V26.7Z"  fill="#ff004c" stop-color="#ff004c"></path></svg>